<svg width="206" height="69" viewBox="0 0 206 69" xmlns="http://www.w3.org/2000/svg" xmlns:sketch="http://www.bohemiancoding.com/sketch/ns"><title>Logo</title><desc>Created with Sketch.</desc><g sketch:type="MSLayerGroup" fill="none"><path d="M93.275 27.213v1.762h-5.664v-1.762h1.839v-9.455h-2.693v2.521h-1.949v-4.283h11.271v4.283h-1.949v-2.521h-2.692v9.455h1.838" fill="#62615D" sketch:type="MSShapeGroup"/><path d="M108.799 27.213h1.745v1.762h-5.477v-1.762h1.746v-4.116h-5.274v4.116h1.746v1.762h-5.478v-1.762h1.746v-9.455h-1.746v-1.762h5.478v1.762h-1.746v3.634h5.274v-3.634h-1.746v-1.762h5.477v1.762h-1.745v9.455" fill="#62615D" sketch:type="MSShapeGroup"/><path d="M120.498 15.996c1.114 0 1.541.13 1.931.519.65.649.891 1.595.891 5.97s-.241 5.321-.891 5.969c-.39.39-.817.52-1.931.52h-4.234c-1.114 0-1.541-.13-1.931-.52-.651-.649-.892-1.594-.892-5.969s.241-5.321.892-5.97c.39-.389.817-.519 1.931-.519h4.234zm-4.643 10.957c.13.13.26.167.836.167h3.38c.575 0 .705-.037.836-.167.186-.185.26-.723.26-4.468s-.074-4.283-.26-4.468c-.13-.13-.26-.167-.836-.167h-3.38c-.575 0-.705.037-.836.167-.186.185-.26.723-.26 4.468s.074 4.282.26 4.468z" fill="#62615D" sketch:type="MSShapeGroup"/><path d="M129.281 17.72v9.493h1.281v1.762h-4.902v-1.762h1.746v-9.455h-1.746v-1.762h5.07c.52 0 .612.092.742.612l2.525 10.438h.279l2.507-10.438c.13-.52.223-.612.743-.612h4.977v1.762h-1.746v9.455h1.746v1.762h-4.995v-1.762h1.281v-9.493h-.334l-2.823 10.679c-.13.501-.223.575-.724.575h-1.746c-.502 0-.594-.074-.724-.575l-2.823-10.679h-.334" fill="#62615D" sketch:type="MSShapeGroup"/><path d="M144.564 28.974v-1.762h1.412l3.361-10.642c.167-.519.334-.63.891-.63h1.56c.557 0 .724.111.891.63l3.361 10.642h1.412v1.762h-5.386v-1.762h1.783l-.687-2.317-4.512.018-.687 2.299h1.782v1.762h-5.181zm4.568-5.748h3.528l-1.615-5.469h-.278l-1.634 5.469z" fill="#62615D" sketch:type="MSShapeGroup"/><path d="M168.538 28.38c-.39.39-.966.594-2.005.594h-4.179c-1.021 0-1.615-.13-2.024-.538-.538-.538-.706-1.168-.743-3.541h2.061c.037 1.613.093 1.909.241 2.057.111.111.259.167.817.167h3.472c.539 0 .706-.018.854-.167.167-.167.205-.63.205-1.724 0-.945-.019-1.205-.223-1.409-.149-.148-.335-.185-.854-.24l-3.9-.371c-.948-.093-1.504-.241-1.894-.631-.52-.519-.613-1.205-.613-2.91 0-1.668.168-2.485.762-3.078.39-.389.984-.593 1.968-.593h3.825c1.021 0 1.615.13 2.025.538.538.538.668 1.131.742 3.448h-2.061c-.038-1.52-.093-1.816-.241-1.965-.112-.111-.26-.167-.817-.167h-3.101c-.52 0-.687.019-.836.167-.168.167-.205.649-.205 1.632 0 .909.019 1.186.223 1.391.149.148.335.167.854.222l3.9.371c.891.092 1.467.222 1.857.612.502.5.65 1.205.65 2.966 0 1.798-.167 2.577-.761 3.17" fill="#62615D" sketch:type="MSShapeGroup"/><path d="M186.885 27.175h1.485v1.799h-1.876c-.78 0-1.058-.13-1.281-.353-.279-.278-.427-.779-.502-3.337-.037-1.038-.167-1.372-.408-1.613-.297-.297-.613-.352-1.263-.352h-2.748v3.893h1.782v1.762h-5.515v-1.762h1.746v-9.455h-1.746v-1.762h7.892c.854 0 1.43.148 1.82.538.502.501.705 1.131.705 3.078 0 2.28-.538 2.744-2.024 2.947v.038c1.374.26 1.764.779 1.838 2.669.019.575.056 1.335.093 1.909zm-3.083-5.524c.538 0 .724-.056.817-.149.168-.167.241-.445.241-1.78s-.074-1.65-.241-1.817c-.093-.092-.278-.148-.817-.148h-3.509v3.893h3.509z" fill="#62615D" sketch:type="MSShapeGroup"/><path d="M190.543 26.508h2.321v2.466h-2.321v-2.466z" fill="#62615D" sketch:type="MSShapeGroup"/><path d="M95.41 44.603c0 2.132-.278 2.726-.78 3.226-.39.39-1.058.575-1.894.575h-7.948v-1.762h1.746v-9.455h-1.746v-1.762h7.929c.854 0 1.467.149 1.857.538.502.501.724 1.15.724 3.04 0 1.798-.594 2.336-1.746 2.651v.037c1.356.242 1.857.927 1.857 2.911zm-3.287-3.782c.52 0 .705-.019.817-.13.167-.167.241-.5.241-1.705 0-1.187-.074-1.484-.241-1.65-.093-.092-.279-.148-.817-.148h-3.639v3.634h3.639zm-3.639 5.822h3.751c.52 0 .706-.037.817-.149.148-.148.241-.463.241-1.872 0-1.465-.093-1.798-.26-1.966-.093-.092-.241-.129-.799-.129h-3.751v4.116z" fill="#62615D" sketch:type="MSShapeGroup"/><path d="M104.862 37.187v-1.762h5.441v1.762h-1.709v5.822c0 3.263-.186 3.967-.872 4.653-.595.593-1.486.742-3.194.742h-1.56c-1.69 0-2.563-.167-3.12-.723-.687-.686-.854-1.372-.854-4.672v-5.822h-1.709v-1.762h5.441v1.762h-1.746v6.081c0 2.355.186 2.744.445 3.004.205.204.557.297 1.987.297h.836c1.393 0 1.727-.074 1.95-.297.278-.278.408-.612.408-3.004v-6.081h-1.746" fill="#62615D" sketch:type="MSShapeGroup"/><path d="M121.184 46.642v1.762h-5.663v-1.762h1.838v-9.455h-2.692v2.521h-1.95v-4.283h11.272v4.283h-1.95v-2.521h-2.692v9.455h1.838" fill="#62615D" sketch:type="MSShapeGroup"/><path d="M127.461 37.187h-1.746v-1.762h5.571v1.762h-1.838v9.455h4.197v-2.521h1.95v4.283h-9.879v-1.762h1.746v-9.455" fill="#62615D" sketch:type="MSShapeGroup"/><path d="M137.136 37.187v-1.762h10.176v3.912h-1.95v-2.151h-4.494v3.634h3.491v1.706h-3.491v4.116h4.643v-2.428h1.949v4.19h-10.325v-1.762h1.746v-9.455h-1.746" fill="#62615D" sketch:type="MSShapeGroup"/><path d="M161.166 46.606h1.485v1.798h-1.876c-.78 0-1.058-.13-1.281-.352-.279-.279-.427-.779-.502-3.338-.037-1.038-.167-1.372-.408-1.613-.297-.297-.613-.352-1.263-.352h-2.748v3.893h1.782v1.762h-5.515v-1.762h1.746v-9.455h-1.746v-1.762h7.892c.854 0 1.43.149 1.82.538.502.501.705 1.131.705 3.078 0 2.28-.538 2.744-2.024 2.948v.037c1.374.26 1.764.779 1.838 2.669.019.575.056 1.335.093 1.91zm-3.083-5.525c.538 0 .724-.056.817-.149.167-.167.241-.445.241-1.78s-.074-1.65-.241-1.817c-.093-.092-.279-.148-.817-.148h-3.509v3.893h3.509z" fill="#62615D" sketch:type="MSShapeGroup"/><path d="M174.796 46.642v1.762h-5.626v-1.762h1.819v-9.455h-1.819v-1.762h5.626v1.762h-1.82v9.455h1.82" fill="#62615D" sketch:type="MSShapeGroup"/><path d="M186.643 37.187h-1.746v-1.762h5.329v1.762h-1.708v11.217h-2.377c-.538 0-.65-.111-.872-.612l-4.346-9.975h-.278v8.825h1.746v1.762h-5.367v-1.762h1.746v-9.455h-1.746v-1.762h4.308c.538 0 .65.111.873.612l4.159 9.529h.279v-8.38" fill="#62615D" sketch:type="MSShapeGroup"/><path d="M195.148 48.404c-1.114 0-1.541-.13-1.931-.52-.651-.649-.892-1.594-.892-5.969s.241-5.321.892-5.97c.39-.389.817-.519 1.931-.519h4.085c1.059 0 1.653.149 1.987.482.594.593.743 1.242.78 3.782h-2.024c-.019-1.65-.093-2.095-.241-2.244-.111-.111-.26-.167-.817-.167h-3.343c-.575 0-.705.038-.836.167-.186.185-.26.723-.26 4.468s.074 4.282.26 4.468c.13.13.26.167.836.167h3.343c.52 0 .687-.056.817-.185.148-.149.186-.482.241-2.429h2.043c-.037 2.651-.167 3.337-.799 3.968-.372.371-1.039.501-2.005.501h-4.067" fill="#62615D" sketch:type="MSShapeGroup"/><path d="M203.598 45.938h2.321v2.466h-2.321v-2.466z" fill="#62615D" sketch:type="MSShapeGroup"/><path d="M90.426 63.864v.791h-5.386v-8.146h5.421v.791h-4.558v2.724h3.917v.791h-3.917v3.049h4.523" fill="#62615D" sketch:type="MSShapeGroup"/><path d="M97.838 61.231c.055.249.082.641.082 1.177s-.035.942-.103 1.217c-.069.276-.192.499-.368.669-.238.241-.629.361-1.173.361h-2.748c-.567 0-.958-.112-1.174-.338-.16-.162-.272-.38-.332-.651-.062-.272-.096-.761-.103-1.466h.862c.007.543.024.908.051 1.094.028.185.081.318.158.395.117.116.335.175.655.175h2.513c.335 0 .561-.062.678-.186.148-.147.222-.566.222-1.257 0-.38-.013-.644-.039-.791-.026-.148-.081-.264-.163-.349-.12-.108-.352-.178-.696-.21l-2.552-.232c-.583-.054-.984-.19-1.201-.407-.147-.148-.249-.34-.304-.577-.054-.237-.082-.615-.082-1.134 0-.504.035-.896.104-1.176.069-.279.191-.504.367-.675.223-.24.609-.361 1.162-.361h2.493c.575 0 .97.113 1.184.338.161.162.272.377.334.64.061.263.095.737.103 1.419h-.862c-.008-.815-.079-1.292-.211-1.431-.124-.117-.343-.175-.654-.175h-2.268c-.327 0-.554.062-.678.187-.14.147-.21.554-.21 1.22 0 .356.014.605.043.749.029.144.088.258.178.343.106.101.359.167.759.198l2.553.233c.545.054.921.191 1.128.408.14.147.237.346.293.594" fill="#62615D" sketch:type="MSShapeGroup"/><path d="M105.661 57.3h-2.716v7.355h-.862v-7.355h-2.716v-.791h6.295v.791" fill="#62615D" sketch:type="MSShapeGroup"/><path d="M106.698 63.445h1.13v1.21h-1.13v-1.21z" fill="#62615D" sketch:type="MSShapeGroup"/><path d="M112.472 52.942h.743v15.851h-.743v-15.851z" fill="#62615D" sketch:type="MSShapeGroup"/><path d="M120.961 64.655h-.862v-7.228l-1.492.584-.268-.734 1.912-.779h.711v8.158" fill="#62615D" sketch:type="MSShapeGroup"/><path d="M127.593 63.631c.148-.139.255-.393.322-.762.066-.368.103-1.072.111-2.112-.329.24-.585.4-.768.478-.183.077-.401.115-.653.115h-1.663c-.672 0-1.143-.131-1.409-.395-.176-.179-.299-.416-.368-.711-.069-.294-.103-.725-.103-1.291 0-.978.177-1.645.53-2.002.291-.295.758-.442 1.402-.442h1.794c.398 0 .707.031.925.093.218.063.408.171.57.326.237.232.416.605.534 1.117.119.512.179 1.358.179 2.537 0 1.163-.059 2.008-.179 2.532-.119.523-.301.901-.547 1.134-.168.155-.363.262-.58.32-.219.058-.544.087-.974.087h-1.876c-.591 0-1.006-.12-1.244-.361-.168-.17-.287-.384-.356-.639-.069-.256-.105-.652-.107-1.187h.815c.015.644.101 1.044.257 1.199.132.132.374.198.725.198h1.741c.445 0 .752-.078.924-.233zm-2.49-3.072h1.718c.359 0 .76-.116 1.204-.349-.015-1.497-.159-2.389-.432-2.677-.171-.155-.468-.233-.888-.233h-1.613c-.421 0-.713.082-.877.245-.194.21-.292.668-.292 1.373 0 .745.09 1.21.269 1.397.171.162.476.244.911.244z" fill="#62615D" sketch:type="MSShapeGroup"/><path d="M130.545 57.3v-.791h5.651v.594l-3.636 7.552h-1.003l3.581-7.355h-4.593" fill="#62615D" sketch:type="MSShapeGroup"/><path d="M137.618 64.655v-1.012c0-.574.037-.997.111-1.268.073-.271.207-.509.402-.71.225-.224.598-.442 1.119-.652l2.296-.908c.34-.148.568-.304.682-.468.136-.202.205-.564.205-1.086 0-.522-.091-.865-.272-1.028-.142-.149-.417-.223-.826-.223h-1.675c-.37 0-.626.075-.768.223-.157.165-.24.626-.247 1.383h-.863c.007-.605.048-1.049.12-1.332.072-.284.192-.514.361-.693.252-.248.686-.372 1.304-.372h1.967c.595 0 1.014.123 1.258.371.335.34.502.897.502 1.67 0 .443-.029.779-.087 1.009-.058.229-.156.437-.294.624-.175.233-.545.474-1.112.723l-2.296.908c-.361.149-.606.293-.735.434-.193.211-.29.605-.29 1.184v.434h4.954v.791h-5.816" fill="#62615D" sketch:type="MSShapeGroup"/><path d="M39.231 25.757v-25.979h-38.987v35.634l19.462-9.656h19.525" fill="#8EAFD2" sketch:type="MSShapeGroup"/><path d="M48.769 25.757c7.642 0 13.204-5.814 13.204-12.988 0-7.175-6.195-12.99-13.839-12.99h-5.655v25.979h6.289" fill="#62615D" sketch:type="MSShapeGroup"/><path d="M47.653 28.986h-5.22v35.668h5.54l-.319.004c9.703 0 17.569-7.985 17.569-17.836 0-9.851-7.866-17.836-17.569-17.836" fill="#62615D" sketch:type="MSShapeGroup"/><path d="M19.737 28.939l-19.493 9.674v26.041h38.987v-18.83l-19.494-16.884" fill="#F9CB3B" sketch:type="MSShapeGroup"/></g></svg>