<svg xmlns="http://www.w3.org/2000/svg" xmlns:xlink="http://www.w3.org/1999/xlink" viewBox="0 0 220 220" enable-background="new 0 0 220 220"><circle opacity=".4" fill-rule="evenodd" clip-rule="evenodd" fill="#F9CB3B" cx="110.5" cy="109.5" r="110"/><defs><path id="a" d="M162 78.2h-94.3c-1.3 0-2.4 1.1-2.4 2.4v66c0 1.3 1.1 2.4 2.4 2.4h94.3c1.3 0 2.4-1.1 2.4-2.4v-66c0-1.3-1.1-2.4-2.4-2.4z"/></defs><clipPath id="b"><use xlink:href="#a" overflow="visible"/></clipPath><path clip-path="url(#b)" fill-rule="evenodd" clip-rule="evenodd" fill="#676767" d="M55.3 68.2h119.1v90.9h-119.1z"/><defs><path id="c" d="M70.1 83.1h89.5v61.1h-89.5z"/></defs><clipPath id="d"><use xlink:href="#c" overflow="visible"/></clipPath><path clip-path="url(#d)" fill-rule="evenodd" clip-rule="evenodd" fill="#fff" d="M60.1 73.1h109.5v81.1h-109.5z"/><defs><path id="e" d="M70.1 83.1h89.5v61.1h-89.5z"/></defs><clipPath id="f"><use xlink:href="#e" overflow="visible"/></clipPath><path opacity=".4" clip-path="url(#f)" fill-rule="evenodd" clip-rule="evenodd" fill="#F9CB3B" d="M60.1 73.1h109.5v81.1h-109.5z"/><g stroke="#676767" stroke-width="4" stroke-miterlimit="10" fill="none"><path d="M72.5 71.7v9M157.1 72.2v8.5"/></g><defs><circle id="g" cx="110.5" cy="109.5" r="110"/></defs><clipPath id="h"><use xlink:href="#g" overflow="visible"/></clipPath><path clip-path="url(#h)" stroke="#676767" stroke-width="4" stroke-linecap="round" stroke-linejoin="round" stroke-miterlimit="10" fill="none" d="M58 58.7v-2.5l-6-4.9-6.1 4.9v146.7l12.1 7.3v-139.3l111.2.1v-12.3z"/></svg>