<svg xmlns="http://www.w3.org/2000/svg" xmlns:xlink="http://www.w3.org/1999/xlink" viewBox="0 0 220 220" enable-background="new 0 0 220 220"><g enable-background="new"><circle opacity=".4" fill-rule="evenodd" clip-rule="evenodd" fill="#F9CB3B" cx="110" cy="110" r="110"/><defs><path id="a" d="M110 26.9c-.8 0-1.6.3-2.2.9l-70.7 70.2c-.8 1-1 2.2-.7 3.4.5 1.2 1.5 1.2 2.7 1.2h14.7v68.4c0 1.2 1.2 2.4 2.4 2.4h107.6c1.7 0 2.4-.7 2.4-2.4v-68.4h14.7c1.2 0 1.3 0 1.8-1.2.3-1.2.2-2.4-.7-3.4l-69.8-70.3c-.6-.5-1.4-.8-2.2-.8m0 5.6l64.9 65.3h-8.7c-2.7 0-4.9 2.2-4.9 4.9v66h-102.6v-66c0-2.7-2.2-4.9-4.9-4.9h-9.5l65.7-65.3"/></defs><clipPath id="b"><use xlink:href="#a" overflow="visible"/></clipPath><g clip-path="url(#b)"><defs><path id="c" d="M0 0h220v220h-220z"/></defs><clipPath id="d"><use xlink:href="#c" overflow="visible"/></clipPath><path clip-path="url(#d)" fill-rule="evenodd" clip-rule="evenodd" fill="#676767" d="M26.2 16.9h166.7v166.7h-166.7z"/></g><path stroke="#676767" stroke-width="5" stroke-linecap="round" stroke-linejoin="round" stroke-miterlimit="10" d="M141.8 90.6v54.1c0 2.1-1.8 3.9-4 3.9h-55.6c-2.2 0-4-1.7-4-3.9v-54.1c0-2.1 1.8-3.9 4-3.9h5.3v7.7c0 2.1 1.8 3.9 4 3.9s4-1.7 4-3.9v-7.7h29.1v7.7c0 2.1 1.8 3.9 4 3.9s4-1.7 4-3.9v-7.7h5.3c2.1 0 3.9 1.7 3.9 3.9z" fill="none"/><defs><path id="e" d="M87.5 111.2h10.6v10.3h-10.6z"/></defs><clipPath id="f"><use xlink:href="#e" overflow="visible"/></clipPath><g clip-path="url(#f)"><defs><path id="g" d="M0 0h220v220h-220z"/></defs><clipPath id="h"><use xlink:href="#g" overflow="visible"/></clipPath><path clip-path="url(#h)" fill-rule="evenodd" clip-rule="evenodd" fill="#676767" d="M77.5 101.2h30.6v30.3h-30.6z"/></g><defs><path id="i" d="M87.5 129.2h10.6v10.3h-10.6z"/></defs><clipPath id="j"><use xlink:href="#i" overflow="visible"/></clipPath><g clip-path="url(#j)"><defs><path id="k" d="M0 0h220v220h-220z"/></defs><clipPath id="l"><use xlink:href="#k" overflow="visible"/></clipPath><path clip-path="url(#l)" fill-rule="evenodd" clip-rule="evenodd" fill="#676767" d="M77.5 119.2h30.6v30.3h-30.6z"/></g><defs><path id="m" d="M104.7 111.2h10.6v10.3h-10.6z"/></defs><clipPath id="n"><use xlink:href="#m" overflow="visible"/></clipPath><g clip-path="url(#n)"><defs><path id="o" d="M0 0h220v220h-220z"/></defs><clipPath id="p"><use xlink:href="#o" overflow="visible"/></clipPath><path clip-path="url(#p)" fill-rule="evenodd" clip-rule="evenodd" fill="#676767" d="M94.7 101.2h30.6v30.3h-30.6z"/></g><defs><path id="q" d="M104.7 129.2h10.6v10.3h-10.6z"/></defs><clipPath id="r"><use xlink:href="#q" overflow="visible"/></clipPath><g clip-path="url(#r)"><defs><path id="s" d="M0 0h220v220h-220z"/></defs><clipPath id="t"><use xlink:href="#s" overflow="visible"/></clipPath><path clip-path="url(#t)" fill-rule="evenodd" clip-rule="evenodd" fill="#676767" d="M94.7 119.2h30.6v30.3h-30.6z"/></g><defs><path id="u" d="M121.9 111.2h10.6v10.3h-10.6z"/></defs><clipPath id="v"><use xlink:href="#u" overflow="visible"/></clipPath><g clip-path="url(#v)"><defs><path id="w" d="M0 0h220v220h-220z"/></defs><clipPath id="x"><use xlink:href="#w" overflow="visible"/></clipPath><path clip-path="url(#x)" fill-rule="evenodd" clip-rule="evenodd" fill="#676767" d="M111.9 101.2h30.6v30.3h-30.6z"/></g><defs><path id="y" d="M121.9 129.2h10.6v10.3h-10.6z"/></defs><clipPath id="z"><use xlink:href="#y" overflow="visible"/></clipPath><g clip-path="url(#z)"><defs><path id="A" d="M0 0h220v220h-220z"/></defs><clipPath id="B"><use xlink:href="#A" overflow="visible"/></clipPath><path clip-path="url(#B)" fill-rule="evenodd" clip-rule="evenodd" fill="#676767" d="M111.9 119.2h30.6v30.3h-30.6z"/></g></g></svg>