<svg width="109" height="110" viewBox="0 0 109 110" xmlns="http://www.w3.org/2000/svg" xmlns:xlink="http://www.w3.org/1999/xlink" xmlns:sketch="http://www.bohemiancoding.com/sketch/ns"><title>Icon</title><desc>Created with Sketch.</desc><defs><path id="a" d="M108.743 57.34c-1.173 28.339-23.554 51.136-51.514 52.586h-5.667c-28.725-1.49-51.562-25.512-51.562-54.927 0-30.376 24.354-55 54.396-55 29.267 0 53.135 23.369 54.347 52.66v4.68z"/></defs><g sketch:type="MSLayerGroup" fill="none"><ellipse fill-opacity=".4" fill="#F9CB3B" sketch:type="MSShapeGroup" cx="54.396" cy="55" rx="54.396" ry="55"/><path d="M35.055 41.556h44.725v30.556h-44.725v-30.556zm45.934-2.444h-47.143c-.665 0-1.209.55-1.209 1.222v33c0 .672.544 1.222 1.209 1.222h47.143c.665 0 1.209-.55 1.209-1.222v-33c0-.672-.544-1.222-1.209-1.222z" fill="#676767" sketch:type="MSShapeGroup"/><g transform="translate(1.209)"><path d="M35.036 35.827v4.506M77.363 36.093v4.24" stroke="#676767" stroke-width="2" sketch:type="MSShapeGroup"/><mask id="b" sketch:name="Clip 5"><use xlink:href="#a"/></mask><path d="M27.802 29.333v-1.222l-3.022-2.444-3.022 2.444v73.333l6.044 3.667v-69.667l55.585.051v-6.162h-55.585z" stroke="#676767" stroke-width="2" stroke-linecap="round" stroke-linejoin="round" sketch:type="MSShapeGroup" mask="url(#b)"/></g></g></svg>