<svg xmlns="http://www.w3.org/2000/svg" xmlns:xlink="http://www.w3.org/1999/xlink" viewBox="0 0 110 110" enable-background="new 0 0 110 110"><circle opacity=".4" fill-rule="evenodd" clip-rule="evenodd" fill="#F9CB3B" cx="55" cy="55" r="55"/><defs><path id="a" d="M80.7 39.4h-47.1c-.7 0-1.2.6-1.2 1.2v33c0 .7.5 1.2 1.2 1.2h47.1c.7 0 1.2-.5 1.2-1.2v-33c0-.7-.5-1.2-1.2-1.2z"/></defs><clipPath id="b"><use xlink:href="#a" overflow="visible"/></clipPath><path clip-path="url(#b)" fill-rule="evenodd" clip-rule="evenodd" fill="#676767" d="M27.4 34.4h59.6v45.4h-59.6z"/><defs><path id="c" d="M34.8 41.8h44.7v30.6h-44.7z"/></defs><clipPath id="d"><use xlink:href="#c" overflow="visible"/></clipPath><path clip-path="url(#d)" fill-rule="evenodd" clip-rule="evenodd" fill="#fff" d="M29.8 36.8h54.7v40.6h-54.7z"/><defs><path id="e" d="M34.8 41.8h44.7v30.6h-44.7z"/></defs><clipPath id="f"><use xlink:href="#e" overflow="visible"/></clipPath><path opacity=".4" clip-path="url(#f)" fill-rule="evenodd" clip-rule="evenodd" fill="#F9CB3B" d="M29.8 36.8h54.7v40.6h-54.7z"/><g stroke="#676767" stroke-width="2" stroke-miterlimit="10" fill="none"><path d="M36 36.1v4.5M78.3 36.3v4.3"/></g><defs><circle id="g" cx="55" cy="55" r="55"/></defs><clipPath id="h"><use xlink:href="#g" overflow="visible"/></clipPath><path clip-path="url(#h)" stroke="#676767" stroke-width="2" stroke-linecap="round" stroke-linejoin="round" stroke-miterlimit="10" fill="none" d="M28.8 29.6v-1.2l-3.1-2.5-3 2.5v73.3l6.1 3.7v-69.7h55.5v-6.1z"/></svg>