<svg xmlns="http://www.w3.org/2000/svg" xmlns:xlink="http://www.w3.org/1999/xlink" viewBox="0 0 110 110" enable-background="new 0 0 110 110"><g enable-background="new"><circle opacity=".4" fill-rule="evenodd" clip-rule="evenodd" fill="#F9CB3B" cx="55" cy="55" r="55"/><defs><path id="a" d="M55 13.4c-.4 0-.8.1-1.1.4l-35.4 35.2c-.4.5-.5 1.1-.3 1.7.3.6.8.6 1.4.6h7.3v34.2c0 .6.6 1.2 1.2 1.2h53.8c.8 0 1.2-.4 1.2-1.2v-34.2h7.3c.6 0 .7 0 .9-.6.2-.6.1-1.2-.3-1.7l-34.9-35.1c-.3-.3-.7-.5-1.1-.5m0 2.8l32.5 32.6h-4.3c-1.4 0-2.4 1.1-2.4 2.4v33h-51.5v-33c0-1.4-1.1-2.4-2.4-2.4h-4.8l32.9-32.6"/></defs><clipPath id="b"><use xlink:href="#a" overflow="visible"/></clipPath><g clip-path="url(#b)"><defs><path id="c" d="M0 0h110v110h-110z"/></defs><clipPath id="d"><use xlink:href="#c" overflow="visible"/></clipPath><path clip-path="url(#d)" fill-rule="evenodd" clip-rule="evenodd" fill="#676767" d="M13.1 8.4h83.3v83.3h-83.3z"/></g><path stroke="#676767" stroke-width="2.5" stroke-linecap="round" stroke-linejoin="round" stroke-miterlimit="10" d="M70.9 45.3v27.1c0 1.1-.9 1.9-2 1.9h-27.8c-1.1 0-2-.9-2-1.9v-27.1c0-1.1.9-1.9 2-1.9h2.6v3.9c0 1.1.9 1.9 2 1.9s2-.9 2-1.9v-3.9h14.6v3.9c0 1.1.9 1.9 2 1.9s2-.9 2-1.9v-3.9h2.6c1.1-.1 2 .8 2 1.9z" fill="none"/><defs><path id="e" d="M43.7 55.6h5.3v5.2h-5.3z"/></defs><clipPath id="f"><use xlink:href="#e" overflow="visible"/></clipPath><g clip-path="url(#f)"><defs><path id="g" d="M0 0h110v110h-110z"/></defs><clipPath id="h"><use xlink:href="#g" overflow="visible"/></clipPath><path clip-path="url(#h)" fill-rule="evenodd" clip-rule="evenodd" fill="#676767" d="M38.7 50.6h15.3v15.2h-15.3z"/></g><defs><path id="i" d="M43.7 64.6h5.3v5.2h-5.3z"/></defs><clipPath id="j"><use xlink:href="#i" overflow="visible"/></clipPath><g clip-path="url(#j)"><defs><path id="k" d="M0 0h110v110h-110z"/></defs><clipPath id="l"><use xlink:href="#k" overflow="visible"/></clipPath><path clip-path="url(#l)" fill-rule="evenodd" clip-rule="evenodd" fill="#676767" d="M38.7 59.6h15.3v15.2h-15.3z"/></g><defs><path id="m" d="M52.3 55.6h5.3v5.2h-5.3z"/></defs><clipPath id="n"><use xlink:href="#m" overflow="visible"/></clipPath><g clip-path="url(#n)"><defs><path id="o" d="M0 0h110v110h-110z"/></defs><clipPath id="p"><use xlink:href="#o" overflow="visible"/></clipPath><path clip-path="url(#p)" fill-rule="evenodd" clip-rule="evenodd" fill="#676767" d="M47.3 50.6h15.3v15.2h-15.3z"/></g><defs><path id="q" d="M52.3 64.6h5.3v5.2h-5.3z"/></defs><clipPath id="r"><use xlink:href="#q" overflow="visible"/></clipPath><g clip-path="url(#r)"><defs><path id="s" d="M0 0h110v110h-110z"/></defs><clipPath id="t"><use xlink:href="#s" overflow="visible"/></clipPath><path clip-path="url(#t)" fill-rule="evenodd" clip-rule="evenodd" fill="#676767" d="M47.3 59.6h15.3v15.2h-15.3z"/></g><defs><path id="u" d="M61 55.6h5.3v5.2h-5.3z"/></defs><clipPath id="v"><use xlink:href="#u" overflow="visible"/></clipPath><g clip-path="url(#v)"><defs><path id="w" d="M0 0h110v110h-110z"/></defs><clipPath id="x"><use xlink:href="#w" overflow="visible"/></clipPath><path clip-path="url(#x)" fill-rule="evenodd" clip-rule="evenodd" fill="#676767" d="M56 50.6h15.3v15.2h-15.3z"/></g><defs><path id="y" d="M61 64.6h5.3v5.2h-5.3z"/></defs><clipPath id="z"><use xlink:href="#y" overflow="visible"/></clipPath><g clip-path="url(#z)"><defs><path id="A" d="M0 0h110v110h-110z"/></defs><clipPath id="B"><use xlink:href="#A" overflow="visible"/></clipPath><path clip-path="url(#B)" fill-rule="evenodd" clip-rule="evenodd" fill="#676767" d="M56 59.6h15.3v15.2h-15.3z"/></g></g></svg>